<svg id="northAmerica" xmlns="http://www.w3.org/2000/svg" viewBox="0 0 2000 1020"><defs><style>.cls-1{fill:#fff;stroke:#000;stroke-miterlimit:10;}</style></defs><path class="cls-1" d="M280.28,293.58l10.49-4.89,7-6.29v-6.29l-4.19-6.29-5.6-4.9-.69-6.29-5.6-5.59v-4.19l2.8-6.3.7-8.38,1.4-7h7.69l9.78-4.9h7.69l4.2-5.59-3.5-4.89-6.29-3.5-6.29-7V190.83l4.19-4.9h20.27l4.2,2.8,3.49-6.29V166.36l4.9-9.09,4.89-3.49,5.59-3.5H353l6.29-4.19h24.47l9.79,4.19,9.78,6.29,9.09,2.1,9.79,3.5,7.69,7.69,7,10.48,7.69,6.29,9.08,4.2h11.89l5.59-1.4,5.59-4.2H483l7,6.3,3.5,7,7,3.49,8.39,2.1,5.59,2.1,7.69,8.38L527,225.43l4.2,6.64,8.38,3.49h11.89l3.49-4.89,5.59-5.24,5.6,3.84,5.59,7,4.19,2.8,7.69.7,8.39,2.79,7.69,3.5,5.59-2.1V225.43l8.39-7.34,7.69-2.8,4.19.7,3.5,6.29v10.49L634,244h9.79l5.59-4.19,3.5,7-4.2,10.48-11.88,4.2L623.51,267l-8.39,9.79-13.28,7-14,7-9.79,14,.7,25.86,4.89,10.49,10.49,7.69,11.18,4.89.7,9.79,2.1,11.88,6.29,7.69h6.29s1.4-4.89,2.1-7,7.69-9.79,7.69-9.79l7.69-5.59,1.4-13.28,4.89-7.69,4.89-4.89,3.5-4.2-3.5-7V310.36s-1.4-7,3.5-7.69,8.38-1.4,8.38-1.4l11.19,3.5L678.73,316v22.37l11.19,1.4L697.6,332l5.6-7v5.59l4.19-2.79v35.65l4.19,7,5.6,4.89,6.29,7.69-4.89,11.88-5.6,3.5h-8.39l-10.48-3.5-7.69,3.5h-9.09l-8.39,9.78-2.09,7,6.29-4.19,9.09-1.4,6.29,10.49-2.1,12.58-5.59,5.59H659.16l-4.2,7-1.39,7-10.49,4.9L634,461.35l-9.08,8.39-2.1,12.58-7,7.69-15.38,11.88-5.59,9.79-2.8,11.18c-.13,4.95-.22,15.58,1.4,20.28l-4.89-9.09-3.5-4.19-2.1-5.6-9.78-5.94h-9.09l-10.49,3.85-14,3.49h-9.78l-9.09,4.89-10.49,12.59-4.19,15.38,2.1,18.17L518,583l9.79,3.5,9.09-7,9.78-8.39L554.3,576l-.7,10.49-4.19,8.38,4.19,2.8,10.49-2.8h7l4.19,2.8.7,12.58-2.09,8.39,1.39,9.79h41.25l-.7,5.59-8.39,4.89-9.79-3.49H572.48L562,627l-12.58-9.79-10.48-8.38L527,602.55l-7.69-1.39-11.18-1.4-12.58-7.69L482.3,583,471.12,572.5S462,562,462.73,559.91s-11.18-32.85-11.18-32.85l-3.5-4.89-7.69-9.79h-4.19L439,525.66l4.9,16.08-11.89-14L426.38,511l-5.59-9.09-6.29-9.78-9.79-13.28c.06-3.75.11-9.59,0-16.78-.14-9.12-.42-12.31,0-17.48a78.66,78.66,0,0,1,3.5-17.47l-2.1-14c-.18-3.79.27-8.65,3.49-11.89,3.75-3.75,7.81-1.89,11.19-5.59,5.09-5.57,1.68-16.18,1.52-16.64-1.65-4.94-3.79-5.05-5.71-10.62-1.39-4-.88-5.68-1.4-11.88a96.39,96.39,0,0,0-4.2-21,77.71,77.71,0,0,0-5.59-14c-2.47-4.73-3.71-5.82-6.29-10.48a80.55,80.55,0,0,1-6.29-14.68,46.28,46.28,0,0,0-14-16.78c-4.06-3-11-8.12-20.35-8.46-8.72-.32-13.47,3.73-16.7.77s-.35-9.34-4.19-11.88a6.07,6.07,0,0,0-6.3,0c-2.8,1.85-2.3,6.07-3,9.76-.78,4.23-3.49,10-12.4,16.1l-16.78,9.79-28,11.19S260.71,309,257.92,309Z"/></svg>